M48
;DRILL file {KiCad 4.0.6} date 04/12/18 14:55:40
;FORMAT={-:-/ absolute / inch / decimal}
FMAT,2
INCH,TZ
T1C0.016
T2C0.024
T3C0.026
T4C0.028
T5C0.031
T6C0.040
T7C0.075
%
G90
G05
M72
T1
X5.1083Y-4.3012
X5.1476Y-4.3602
X5.1772Y-4.2913
X5.1969Y-4.4488
X5.2657Y-4.4094
X5.315Y-4.3307
X5.4528Y-4.4193
X5.8465Y-4.2224
X5.9449Y-4.2618
T2
X4.8327Y-4.3799
X4.8425Y-4.0453
X4.8425Y-4.1535
X5.1083Y-4.1535
X6.0335Y-4.1831
T5
X4.5669Y-4.3602
T6
X4.6161Y-4.0354
X4.6161Y-4.1354
T7
X5.4035Y-4.1437
X5.4035Y-4.3406
X5.6988Y-4.1437
X5.6988Y-4.3406
X6.1319Y-4.1437
X6.1319Y-4.3406
X6.4272Y-4.1437
X6.4272Y-4.3406
T3
X5.8201Y-4.3437G85X5.8201Y-4.328
G05
X6.0106Y-4.3437G85X6.0106Y-4.328
G05
T4
X5.8079Y-4.4638G85X5.8079Y-4.4441
G05
X6.0228Y-4.4638G85X6.0228Y-4.4441
G05
T0
M30
