G04 #@! TF.FileFunction,Other,Fab,Top*
%FSLAX46Y46*%
G04 Gerber Fmt 4.6, Leading zero omitted, Abs format (unit mm)*
G04 Created by KiCad (PCBNEW 4.0.6) date 04/12/18 14:55:29*
%MOMM*%
%LPD*%
G01*
G04 APERTURE LIST*
%ADD10C,0.100000*%
%ADD11C,0.150000*%
%ADD12C,0.075000*%
%ADD13C,0.105000*%
G04 APERTURE END LIST*
D10*
X124750000Y-104620000D02*
X124750000Y-103380000D01*
X126750000Y-104620000D02*
X124750000Y-104620000D01*
X126750000Y-103380000D02*
X126750000Y-104620000D01*
X124750000Y-103380000D02*
X126750000Y-103380000D01*
X126750000Y-106130000D02*
X126750000Y-107370000D01*
X124750000Y-106130000D02*
X126750000Y-106130000D01*
X124750000Y-107370000D02*
X124750000Y-106130000D01*
X126750000Y-107370000D02*
X124750000Y-107370000D01*
X115700000Y-108600000D02*
X117300000Y-108600000D01*
X117300000Y-108600000D02*
X117300000Y-109400000D01*
X117300000Y-109400000D02*
X115700000Y-109400000D01*
X115700000Y-109400000D02*
X115700000Y-108600000D01*
X119100000Y-113300000D02*
X119100000Y-111700000D01*
X119100000Y-111700000D02*
X115900000Y-111700000D01*
X115900000Y-111700000D02*
X115900000Y-113300000D01*
X115900000Y-113300000D02*
X119100000Y-113300000D01*
X118780000Y-113300000D02*
X118780000Y-111700000D01*
X118620000Y-113300000D02*
X118620000Y-111700000D01*
X133250000Y-106130000D02*
X133250000Y-107370000D01*
X131250000Y-106130000D02*
X133250000Y-106130000D01*
X131250000Y-107370000D02*
X131250000Y-106130000D01*
X133250000Y-107370000D02*
X131250000Y-107370000D01*
X133250000Y-103380000D02*
X133250000Y-104620000D01*
X131250000Y-103380000D02*
X133250000Y-103380000D01*
X131250000Y-104620000D02*
X131250000Y-103380000D01*
X133250000Y-104620000D02*
X131250000Y-104620000D01*
X131475000Y-110500000D02*
X132000000Y-110000000D01*
X131475000Y-110500000D02*
X131475000Y-112000000D01*
X133025000Y-110000000D02*
X133025000Y-112000000D01*
X133025000Y-112000000D02*
X131475000Y-112000000D01*
X132000000Y-110000000D02*
X133025000Y-110000000D01*
X149600000Y-104100000D02*
X150250000Y-103450000D01*
X151400000Y-103450000D02*
X150250000Y-103450000D01*
X149600000Y-104100000D02*
X149600000Y-106550000D01*
X151400000Y-106550000D02*
X149600000Y-106550000D01*
X151400000Y-103450000D02*
X151400000Y-106550000D01*
X124850000Y-110350000D02*
X125500000Y-109700000D01*
X126650000Y-109700000D02*
X125500000Y-109700000D01*
X124850000Y-110350000D02*
X124850000Y-112800000D01*
X126650000Y-112800000D02*
X124850000Y-112800000D01*
X126650000Y-109700000D02*
X126650000Y-112800000D01*
D11*
X147202381Y-110952381D02*
X147202381Y-111761905D01*
X147250000Y-111857143D01*
X147297619Y-111904762D01*
X147392857Y-111952381D01*
X147583334Y-111952381D01*
X147678572Y-111904762D01*
X147726191Y-111857143D01*
X147773810Y-111761905D01*
X147773810Y-110952381D01*
X148202381Y-111904762D02*
X148345238Y-111952381D01*
X148583334Y-111952381D01*
X148678572Y-111904762D01*
X148726191Y-111857143D01*
X148773810Y-111761905D01*
X148773810Y-111666667D01*
X148726191Y-111571429D01*
X148678572Y-111523810D01*
X148583334Y-111476190D01*
X148392857Y-111428571D01*
X148297619Y-111380952D01*
X148250000Y-111333333D01*
X148202381Y-111238095D01*
X148202381Y-111142857D01*
X148250000Y-111047619D01*
X148297619Y-111000000D01*
X148392857Y-110952381D01*
X148630953Y-110952381D01*
X148773810Y-111000000D01*
X149535715Y-111428571D02*
X149678572Y-111476190D01*
X149726191Y-111523810D01*
X149773810Y-111619048D01*
X149773810Y-111761905D01*
X149726191Y-111857143D01*
X149678572Y-111904762D01*
X149583334Y-111952381D01*
X149202381Y-111952381D01*
X149202381Y-110952381D01*
X149535715Y-110952381D01*
X149630953Y-111000000D01*
X149678572Y-111047619D01*
X149726191Y-111142857D01*
X149726191Y-111238095D01*
X149678572Y-111333333D01*
X149630953Y-111380952D01*
X149535715Y-111428571D01*
X149202381Y-111428571D01*
X149964286Y-112047619D02*
X150726191Y-112047619D01*
X151154762Y-110952381D02*
X151345239Y-110952381D01*
X151440477Y-111000000D01*
X151535715Y-111095238D01*
X151583334Y-111285714D01*
X151583334Y-111619048D01*
X151535715Y-111809524D01*
X151440477Y-111904762D01*
X151345239Y-111952381D01*
X151154762Y-111952381D01*
X151059524Y-111904762D01*
X150964286Y-111809524D01*
X150916667Y-111619048D01*
X150916667Y-111285714D01*
X150964286Y-111095238D01*
X151059524Y-111000000D01*
X151154762Y-110952381D01*
X151869048Y-110952381D02*
X152440477Y-110952381D01*
X152154762Y-111952381D02*
X152154762Y-110952381D01*
X153297620Y-111000000D02*
X153202382Y-110952381D01*
X153059525Y-110952381D01*
X152916667Y-111000000D01*
X152821429Y-111095238D01*
X152773810Y-111190476D01*
X152726191Y-111380952D01*
X152726191Y-111523810D01*
X152773810Y-111714286D01*
X152821429Y-111809524D01*
X152916667Y-111904762D01*
X153059525Y-111952381D01*
X153154763Y-111952381D01*
X153297620Y-111904762D01*
X153345239Y-111857143D01*
X153345239Y-111523810D01*
X153154763Y-111523810D01*
X124928572Y-102702381D02*
X124357143Y-102702381D01*
X124642857Y-102702381D02*
X124642857Y-101702381D01*
X124547619Y-101845238D01*
X124452381Y-101940476D01*
X124357143Y-101988095D01*
X125547619Y-101702381D02*
X125642858Y-101702381D01*
X125738096Y-101750000D01*
X125785715Y-101797619D01*
X125833334Y-101892857D01*
X125880953Y-102083333D01*
X125880953Y-102321429D01*
X125833334Y-102511905D01*
X125785715Y-102607143D01*
X125738096Y-102654762D01*
X125642858Y-102702381D01*
X125547619Y-102702381D01*
X125452381Y-102654762D01*
X125404762Y-102607143D01*
X125357143Y-102511905D01*
X125309524Y-102321429D01*
X125309524Y-102083333D01*
X125357143Y-101892857D01*
X125404762Y-101797619D01*
X125452381Y-101750000D01*
X125547619Y-101702381D01*
X126738096Y-102035714D02*
X126738096Y-102702381D01*
X126309524Y-102035714D02*
X126309524Y-102559524D01*
X126357143Y-102654762D01*
X126452381Y-102702381D01*
X126595239Y-102702381D01*
X126690477Y-102654762D01*
X126738096Y-102607143D01*
X127547620Y-102178571D02*
X127214286Y-102178571D01*
X127214286Y-102702381D02*
X127214286Y-101702381D01*
X127690477Y-101702381D01*
X125583334Y-104357143D02*
X125535715Y-104404762D01*
X125392858Y-104452381D01*
X125297620Y-104452381D01*
X125154762Y-104404762D01*
X125059524Y-104309524D01*
X125011905Y-104214286D01*
X124964286Y-104023810D01*
X124964286Y-103880952D01*
X125011905Y-103690476D01*
X125059524Y-103595238D01*
X125154762Y-103500000D01*
X125297620Y-103452381D01*
X125392858Y-103452381D01*
X125535715Y-103500000D01*
X125583334Y-103547619D01*
X126535715Y-104452381D02*
X125964286Y-104452381D01*
X126250000Y-104452381D02*
X126250000Y-103452381D01*
X126154762Y-103595238D01*
X126059524Y-103690476D01*
X125964286Y-103738095D01*
X125154762Y-105452381D02*
X124583333Y-105452381D01*
X124869047Y-105452381D02*
X124869047Y-104452381D01*
X124773809Y-104595238D01*
X124678571Y-104690476D01*
X124583333Y-104738095D01*
X126011905Y-104785714D02*
X126011905Y-105452381D01*
X125583333Y-104785714D02*
X125583333Y-105309524D01*
X125630952Y-105404762D01*
X125726190Y-105452381D01*
X125869048Y-105452381D01*
X125964286Y-105404762D01*
X126011905Y-105357143D01*
X126821429Y-104928571D02*
X126488095Y-104928571D01*
X126488095Y-105452381D02*
X126488095Y-104452381D01*
X126964286Y-104452381D01*
X125583334Y-107107143D02*
X125535715Y-107154762D01*
X125392858Y-107202381D01*
X125297620Y-107202381D01*
X125154762Y-107154762D01*
X125059524Y-107059524D01*
X125011905Y-106964286D01*
X124964286Y-106773810D01*
X124964286Y-106630952D01*
X125011905Y-106440476D01*
X125059524Y-106345238D01*
X125154762Y-106250000D01*
X125297620Y-106202381D01*
X125392858Y-106202381D01*
X125535715Y-106250000D01*
X125583334Y-106297619D01*
X125964286Y-106297619D02*
X126011905Y-106250000D01*
X126107143Y-106202381D01*
X126345239Y-106202381D01*
X126440477Y-106250000D01*
X126488096Y-106297619D01*
X126535715Y-106392857D01*
X126535715Y-106488095D01*
X126488096Y-106630952D01*
X125916667Y-107202381D01*
X126535715Y-107202381D01*
X114142857Y-107857143D02*
X114190476Y-107904762D01*
X114142857Y-107952381D01*
X114095238Y-107904762D01*
X114142857Y-107857143D01*
X114142857Y-107952381D01*
X115142857Y-107952381D02*
X114571428Y-107952381D01*
X114857142Y-107952381D02*
X114857142Y-106952381D01*
X114761904Y-107095238D01*
X114666666Y-107190476D01*
X114571428Y-107238095D01*
X116000000Y-107285714D02*
X116000000Y-107952381D01*
X115571428Y-107285714D02*
X115571428Y-107809524D01*
X115619047Y-107904762D01*
X115714285Y-107952381D01*
X115857143Y-107952381D01*
X115952381Y-107904762D01*
X116000000Y-107857143D01*
X116809524Y-107428571D02*
X116476190Y-107428571D01*
X116476190Y-107952381D02*
X116476190Y-106952381D01*
X116952381Y-106952381D01*
D12*
X116450000Y-109107143D02*
X116435714Y-109121429D01*
X116392857Y-109135714D01*
X116364286Y-109135714D01*
X116321429Y-109121429D01*
X116292857Y-109092857D01*
X116278572Y-109064286D01*
X116264286Y-109007143D01*
X116264286Y-108964286D01*
X116278572Y-108907143D01*
X116292857Y-108878571D01*
X116321429Y-108850000D01*
X116364286Y-108835714D01*
X116392857Y-108835714D01*
X116435714Y-108850000D01*
X116450000Y-108864286D01*
X116550000Y-108835714D02*
X116735714Y-108835714D01*
X116635714Y-108950000D01*
X116678572Y-108950000D01*
X116707143Y-108964286D01*
X116721429Y-108978571D01*
X116735714Y-109007143D01*
X116735714Y-109078571D01*
X116721429Y-109107143D01*
X116707143Y-109121429D01*
X116678572Y-109135714D01*
X116592857Y-109135714D01*
X116564286Y-109121429D01*
X116550000Y-109107143D01*
D11*
X115452381Y-110952381D02*
X114880952Y-110952381D01*
X115166666Y-110952381D02*
X115166666Y-109952381D01*
X115071428Y-110095238D01*
X114976190Y-110190476D01*
X114880952Y-110238095D01*
X116071428Y-109952381D02*
X116166667Y-109952381D01*
X116261905Y-110000000D01*
X116309524Y-110047619D01*
X116357143Y-110142857D01*
X116404762Y-110333333D01*
X116404762Y-110571429D01*
X116357143Y-110761905D01*
X116309524Y-110857143D01*
X116261905Y-110904762D01*
X116166667Y-110952381D01*
X116071428Y-110952381D01*
X115976190Y-110904762D01*
X115928571Y-110857143D01*
X115880952Y-110761905D01*
X115833333Y-110571429D01*
X115833333Y-110333333D01*
X115880952Y-110142857D01*
X115928571Y-110047619D01*
X115976190Y-110000000D01*
X116071428Y-109952381D01*
X117023809Y-109952381D02*
X117119048Y-109952381D01*
X117214286Y-110000000D01*
X117261905Y-110047619D01*
X117309524Y-110142857D01*
X117357143Y-110333333D01*
X117357143Y-110571429D01*
X117309524Y-110761905D01*
X117261905Y-110857143D01*
X117214286Y-110904762D01*
X117119048Y-110952381D01*
X117023809Y-110952381D01*
X116928571Y-110904762D01*
X116880952Y-110857143D01*
X116833333Y-110761905D01*
X116785714Y-110571429D01*
X116785714Y-110333333D01*
X116833333Y-110142857D01*
X116880952Y-110047619D01*
X116928571Y-110000000D01*
X117023809Y-109952381D01*
X118214286Y-110285714D02*
X118214286Y-110952381D01*
X117785714Y-110285714D02*
X117785714Y-110809524D01*
X117833333Y-110904762D01*
X117928571Y-110952381D01*
X118071429Y-110952381D01*
X118166667Y-110904762D01*
X118214286Y-110857143D01*
X119023810Y-110428571D02*
X118690476Y-110428571D01*
X118690476Y-110952381D02*
X118690476Y-109952381D01*
X119166667Y-109952381D01*
D13*
X117383334Y-112750000D02*
X117350000Y-112783333D01*
X117250000Y-112816667D01*
X117183334Y-112816667D01*
X117083334Y-112783333D01*
X117016667Y-112716667D01*
X116983334Y-112650000D01*
X116950000Y-112516667D01*
X116950000Y-112416667D01*
X116983334Y-112283333D01*
X117016667Y-112216667D01*
X117083334Y-112150000D01*
X117183334Y-112116667D01*
X117250000Y-112116667D01*
X117350000Y-112150000D01*
X117383334Y-112183333D01*
X117983334Y-112350000D02*
X117983334Y-112816667D01*
X117816667Y-112083333D02*
X117650000Y-112583333D01*
X118083334Y-112583333D01*
D11*
X118702381Y-107785714D02*
X118702381Y-107976191D01*
X118750000Y-108071429D01*
X118797619Y-108119048D01*
X118940476Y-108214286D01*
X119130952Y-108261905D01*
X119511905Y-108261905D01*
X119607143Y-108214286D01*
X119654762Y-108166667D01*
X119702381Y-108071429D01*
X119702381Y-107880952D01*
X119654762Y-107785714D01*
X119607143Y-107738095D01*
X119511905Y-107690476D01*
X119273810Y-107690476D01*
X119178571Y-107738095D01*
X119130952Y-107785714D01*
X119083333Y-107880952D01*
X119083333Y-108071429D01*
X119130952Y-108166667D01*
X119178571Y-108214286D01*
X119273810Y-108261905D01*
X119035714Y-106833333D02*
X119702381Y-106833333D01*
X118654762Y-107071429D02*
X119369048Y-107309524D01*
X119369048Y-106690476D01*
X118702381Y-106119048D02*
X118702381Y-106023809D01*
X118750000Y-105928571D01*
X118797619Y-105880952D01*
X118892857Y-105833333D01*
X119083333Y-105785714D01*
X119321429Y-105785714D01*
X119511905Y-105833333D01*
X119607143Y-105880952D01*
X119654762Y-105928571D01*
X119702381Y-106023809D01*
X119702381Y-106119048D01*
X119654762Y-106214286D01*
X119607143Y-106261905D01*
X119511905Y-106309524D01*
X119321429Y-106357143D01*
X119083333Y-106357143D01*
X118892857Y-106309524D01*
X118797619Y-106261905D01*
X118750000Y-106214286D01*
X118702381Y-106119048D01*
X119035714Y-104928571D02*
X119702381Y-104928571D01*
X118654762Y-105166667D02*
X119369048Y-105404762D01*
X119369048Y-104785714D01*
X118702381Y-103928571D02*
X118702381Y-104404762D01*
X119178571Y-104452381D01*
X119130952Y-104404762D01*
X119083333Y-104309524D01*
X119083333Y-104071428D01*
X119130952Y-103976190D01*
X119178571Y-103928571D01*
X119273810Y-103880952D01*
X119511905Y-103880952D01*
X119607143Y-103928571D01*
X119654762Y-103976190D01*
X119702381Y-104071428D01*
X119702381Y-104309524D01*
X119654762Y-104404762D01*
X119607143Y-104452381D01*
X118702381Y-102976190D02*
X118702381Y-103452381D01*
X119178571Y-103500000D01*
X119130952Y-103452381D01*
X119083333Y-103357143D01*
X119083333Y-103119047D01*
X119130952Y-103023809D01*
X119178571Y-102976190D01*
X119273810Y-102928571D01*
X119511905Y-102928571D01*
X119607143Y-102976190D01*
X119654762Y-103023809D01*
X119702381Y-103119047D01*
X119702381Y-103357143D01*
X119654762Y-103452381D01*
X119607143Y-103500000D01*
X119321429Y-102500000D02*
X119321429Y-101738095D01*
X118797619Y-101309524D02*
X118750000Y-101261905D01*
X118702381Y-101166667D01*
X118702381Y-100928571D01*
X118750000Y-100833333D01*
X118797619Y-100785714D01*
X118892857Y-100738095D01*
X118988095Y-100738095D01*
X119130952Y-100785714D01*
X119702381Y-101357143D01*
X119702381Y-100738095D01*
X131333334Y-105452381D02*
X130761905Y-105452381D01*
X131047619Y-105452381D02*
X131047619Y-104452381D01*
X130952381Y-104595238D01*
X130857143Y-104690476D01*
X130761905Y-104738095D01*
X131952381Y-104452381D02*
X132047620Y-104452381D01*
X132142858Y-104500000D01*
X132190477Y-104547619D01*
X132238096Y-104642857D01*
X132285715Y-104833333D01*
X132285715Y-105071429D01*
X132238096Y-105261905D01*
X132190477Y-105357143D01*
X132142858Y-105404762D01*
X132047620Y-105452381D01*
X131952381Y-105452381D01*
X131857143Y-105404762D01*
X131809524Y-105357143D01*
X131761905Y-105261905D01*
X131714286Y-105071429D01*
X131714286Y-104833333D01*
X131761905Y-104642857D01*
X131809524Y-104547619D01*
X131857143Y-104500000D01*
X131952381Y-104452381D01*
X132904762Y-104452381D02*
X133000001Y-104452381D01*
X133095239Y-104500000D01*
X133142858Y-104547619D01*
X133190477Y-104642857D01*
X133238096Y-104833333D01*
X133238096Y-105071429D01*
X133190477Y-105261905D01*
X133142858Y-105357143D01*
X133095239Y-105404762D01*
X133000001Y-105452381D01*
X132904762Y-105452381D01*
X132809524Y-105404762D01*
X132761905Y-105357143D01*
X132714286Y-105261905D01*
X132666667Y-105071429D01*
X132666667Y-104833333D01*
X132714286Y-104642857D01*
X132761905Y-104547619D01*
X132809524Y-104500000D01*
X132904762Y-104452381D01*
X133666667Y-105452381D02*
X133666667Y-104452381D01*
X134238096Y-105452381D02*
X133809524Y-104880952D01*
X134238096Y-104452381D02*
X133666667Y-105023810D01*
D12*
X132166667Y-106976190D02*
X132000000Y-106738095D01*
X131880953Y-106976190D02*
X131880953Y-106476190D01*
X132071429Y-106476190D01*
X132119048Y-106500000D01*
X132142857Y-106523810D01*
X132166667Y-106571429D01*
X132166667Y-106642857D01*
X132142857Y-106690476D01*
X132119048Y-106714286D01*
X132071429Y-106738095D01*
X131880953Y-106738095D01*
X132642857Y-106976190D02*
X132357143Y-106976190D01*
X132500000Y-106976190D02*
X132500000Y-106476190D01*
X132452381Y-106547619D01*
X132404762Y-106595238D01*
X132357143Y-106619048D01*
D11*
X131083334Y-102702381D02*
X130511905Y-102702381D01*
X130797619Y-102702381D02*
X130797619Y-101702381D01*
X130702381Y-101845238D01*
X130607143Y-101940476D01*
X130511905Y-101988095D01*
X131702381Y-101702381D02*
X131797620Y-101702381D01*
X131892858Y-101750000D01*
X131940477Y-101797619D01*
X131988096Y-101892857D01*
X132035715Y-102083333D01*
X132035715Y-102321429D01*
X131988096Y-102511905D01*
X131940477Y-102607143D01*
X131892858Y-102654762D01*
X131797620Y-102702381D01*
X131702381Y-102702381D01*
X131607143Y-102654762D01*
X131559524Y-102607143D01*
X131511905Y-102511905D01*
X131464286Y-102321429D01*
X131464286Y-102083333D01*
X131511905Y-101892857D01*
X131559524Y-101797619D01*
X131607143Y-101750000D01*
X131702381Y-101702381D01*
X132654762Y-101702381D02*
X132750001Y-101702381D01*
X132845239Y-101750000D01*
X132892858Y-101797619D01*
X132940477Y-101892857D01*
X132988096Y-102083333D01*
X132988096Y-102321429D01*
X132940477Y-102511905D01*
X132892858Y-102607143D01*
X132845239Y-102654762D01*
X132750001Y-102702381D01*
X132654762Y-102702381D01*
X132559524Y-102654762D01*
X132511905Y-102607143D01*
X132464286Y-102511905D01*
X132416667Y-102321429D01*
X132416667Y-102083333D01*
X132464286Y-101892857D01*
X132511905Y-101797619D01*
X132559524Y-101750000D01*
X132654762Y-101702381D01*
X133416667Y-102702381D02*
X133416667Y-101702381D01*
X133988096Y-102702381D02*
X133559524Y-102130952D01*
X133988096Y-101702381D02*
X133416667Y-102273810D01*
D12*
X132166667Y-104226190D02*
X132000000Y-103988095D01*
X131880953Y-104226190D02*
X131880953Y-103726190D01*
X132071429Y-103726190D01*
X132119048Y-103750000D01*
X132142857Y-103773810D01*
X132166667Y-103821429D01*
X132166667Y-103892857D01*
X132142857Y-103940476D01*
X132119048Y-103964286D01*
X132071429Y-103988095D01*
X131880953Y-103988095D01*
X132357143Y-103773810D02*
X132380953Y-103750000D01*
X132428572Y-103726190D01*
X132547619Y-103726190D01*
X132595238Y-103750000D01*
X132619048Y-103773810D01*
X132642857Y-103821429D01*
X132642857Y-103869048D01*
X132619048Y-103940476D01*
X132333334Y-104226190D01*
X132642857Y-104226190D01*
D11*
X129166667Y-112928571D02*
X129309524Y-112976190D01*
X129357143Y-113023810D01*
X129404762Y-113119048D01*
X129404762Y-113261905D01*
X129357143Y-113357143D01*
X129309524Y-113404762D01*
X129214286Y-113452381D01*
X128833333Y-113452381D01*
X128833333Y-112452381D01*
X129166667Y-112452381D01*
X129261905Y-112500000D01*
X129309524Y-112547619D01*
X129357143Y-112642857D01*
X129357143Y-112738095D01*
X129309524Y-112833333D01*
X129261905Y-112880952D01*
X129166667Y-112928571D01*
X128833333Y-112928571D01*
X130500000Y-113547619D02*
X130404762Y-113500000D01*
X130309524Y-113404762D01*
X130166667Y-113261905D01*
X130071428Y-113214286D01*
X129976190Y-113214286D01*
X130023809Y-113452381D02*
X129928571Y-113404762D01*
X129833333Y-113309524D01*
X129785714Y-113119048D01*
X129785714Y-112785714D01*
X129833333Y-112595238D01*
X129928571Y-112500000D01*
X130023809Y-112452381D01*
X130214286Y-112452381D01*
X130309524Y-112500000D01*
X130404762Y-112595238D01*
X130452381Y-112785714D01*
X130452381Y-113119048D01*
X130404762Y-113309524D01*
X130309524Y-113404762D01*
X130214286Y-113452381D01*
X130023809Y-113452381D01*
X130833333Y-112547619D02*
X130880952Y-112500000D01*
X130976190Y-112452381D01*
X131214286Y-112452381D01*
X131309524Y-112500000D01*
X131357143Y-112547619D01*
X131404762Y-112642857D01*
X131404762Y-112738095D01*
X131357143Y-112880952D01*
X130785714Y-113452381D01*
X131404762Y-113452381D01*
X132261905Y-112785714D02*
X132261905Y-113452381D01*
X132023809Y-112404762D02*
X131785714Y-113119048D01*
X132404762Y-113119048D01*
X132690476Y-112452381D02*
X133309524Y-112452381D01*
X132976190Y-112833333D01*
X133119048Y-112833333D01*
X133214286Y-112880952D01*
X133261905Y-112928571D01*
X133309524Y-113023810D01*
X133309524Y-113261905D01*
X133261905Y-113357143D01*
X133214286Y-113404762D01*
X133119048Y-113452381D01*
X132833333Y-113452381D01*
X132738095Y-113404762D01*
X132690476Y-113357143D01*
X133785714Y-113452381D02*
X133976190Y-113452381D01*
X134071429Y-113404762D01*
X134119048Y-113357143D01*
X134214286Y-113214286D01*
X134261905Y-113023810D01*
X134261905Y-112642857D01*
X134214286Y-112547619D01*
X134166667Y-112500000D01*
X134071429Y-112452381D01*
X133880952Y-112452381D01*
X133785714Y-112500000D01*
X133738095Y-112547619D01*
X133690476Y-112642857D01*
X133690476Y-112880952D01*
X133738095Y-112976190D01*
X133785714Y-113023810D01*
X133880952Y-113071429D01*
X134071429Y-113071429D01*
X134166667Y-113023810D01*
X134214286Y-112976190D01*
X134261905Y-112880952D01*
X134642857Y-112547619D02*
X134690476Y-112500000D01*
X134785714Y-112452381D01*
X135023810Y-112452381D01*
X135119048Y-112500000D01*
X135166667Y-112547619D01*
X135214286Y-112642857D01*
X135214286Y-112738095D01*
X135166667Y-112880952D01*
X134595238Y-113452381D01*
X135214286Y-113452381D01*
D12*
X132021429Y-110835714D02*
X132021429Y-111078571D01*
X132035714Y-111107143D01*
X132050000Y-111121429D01*
X132078571Y-111135714D01*
X132135714Y-111135714D01*
X132164286Y-111121429D01*
X132178571Y-111107143D01*
X132192857Y-111078571D01*
X132192857Y-110835714D01*
X132492857Y-111135714D02*
X132321429Y-111135714D01*
X132407143Y-111135714D02*
X132407143Y-110835714D01*
X132378572Y-110878571D01*
X132350000Y-110907143D01*
X132321429Y-110921429D01*
D11*
X146857143Y-107352381D02*
X147428572Y-107352381D01*
X147142857Y-108352381D02*
X147142857Y-107352381D01*
X147761905Y-108352381D02*
X147761905Y-107352381D01*
X148142858Y-107352381D01*
X148238096Y-107400000D01*
X148285715Y-107447619D01*
X148333334Y-107542857D01*
X148333334Y-107685714D01*
X148285715Y-107780952D01*
X148238096Y-107828571D01*
X148142858Y-107876190D01*
X147761905Y-107876190D01*
X148761905Y-108352381D02*
X148761905Y-107352381D01*
X149000000Y-107352381D01*
X149142858Y-107400000D01*
X149238096Y-107495238D01*
X149285715Y-107590476D01*
X149333334Y-107780952D01*
X149333334Y-107923810D01*
X149285715Y-108114286D01*
X149238096Y-108209524D01*
X149142858Y-108304762D01*
X149000000Y-108352381D01*
X148761905Y-108352381D01*
X149714286Y-107447619D02*
X149761905Y-107400000D01*
X149857143Y-107352381D01*
X150095239Y-107352381D01*
X150190477Y-107400000D01*
X150238096Y-107447619D01*
X150285715Y-107542857D01*
X150285715Y-107638095D01*
X150238096Y-107780952D01*
X149666667Y-108352381D01*
X150285715Y-108352381D01*
X150714286Y-107828571D02*
X151047620Y-107828571D01*
X151190477Y-108352381D02*
X150714286Y-108352381D01*
X150714286Y-107352381D01*
X151190477Y-107352381D01*
X151809524Y-107352381D02*
X151904763Y-107352381D01*
X152000001Y-107400000D01*
X152047620Y-107447619D01*
X152095239Y-107542857D01*
X152142858Y-107733333D01*
X152142858Y-107971429D01*
X152095239Y-108161905D01*
X152047620Y-108257143D01*
X152000001Y-108304762D01*
X151904763Y-108352381D01*
X151809524Y-108352381D01*
X151714286Y-108304762D01*
X151666667Y-108257143D01*
X151619048Y-108161905D01*
X151571429Y-107971429D01*
X151571429Y-107733333D01*
X151619048Y-107542857D01*
X151666667Y-107447619D01*
X151714286Y-107400000D01*
X151809524Y-107352381D01*
X152761905Y-107352381D02*
X152857144Y-107352381D01*
X152952382Y-107400000D01*
X153000001Y-107447619D01*
X153047620Y-107542857D01*
X153095239Y-107733333D01*
X153095239Y-107971429D01*
X153047620Y-108161905D01*
X153000001Y-108257143D01*
X152952382Y-108304762D01*
X152857144Y-108352381D01*
X152761905Y-108352381D01*
X152666667Y-108304762D01*
X152619048Y-108257143D01*
X152571429Y-108161905D01*
X152523810Y-107971429D01*
X152523810Y-107733333D01*
X152571429Y-107542857D01*
X152619048Y-107447619D01*
X152666667Y-107400000D01*
X152761905Y-107352381D01*
X154047620Y-108352381D02*
X153476191Y-108352381D01*
X153761905Y-108352381D02*
X153761905Y-107352381D01*
X153666667Y-107495238D01*
X153571429Y-107590476D01*
X153476191Y-107638095D01*
D12*
X150226190Y-105380952D02*
X150630952Y-105380952D01*
X150678571Y-105357143D01*
X150702381Y-105333333D01*
X150726190Y-105285714D01*
X150726190Y-105190476D01*
X150702381Y-105142857D01*
X150678571Y-105119048D01*
X150630952Y-105095238D01*
X150226190Y-105095238D01*
X150273810Y-104880952D02*
X150250000Y-104857142D01*
X150226190Y-104809523D01*
X150226190Y-104690476D01*
X150250000Y-104642857D01*
X150273810Y-104619047D01*
X150321429Y-104595238D01*
X150369048Y-104595238D01*
X150440476Y-104619047D01*
X150726190Y-104904761D01*
X150726190Y-104595238D01*
D11*
X122452381Y-111166667D02*
X122928572Y-111166667D01*
X122357143Y-111452381D02*
X122690476Y-110452381D01*
X123023810Y-111452381D01*
X123357143Y-111452381D02*
X123357143Y-110452381D01*
X123738096Y-110452381D01*
X123833334Y-110500000D01*
X123880953Y-110547619D01*
X123928572Y-110642857D01*
X123928572Y-110785714D01*
X123880953Y-110880952D01*
X123833334Y-110928571D01*
X123738096Y-110976190D01*
X123357143Y-110976190D01*
X124309524Y-110547619D02*
X124357143Y-110500000D01*
X124452381Y-110452381D01*
X124690477Y-110452381D01*
X124785715Y-110500000D01*
X124833334Y-110547619D01*
X124880953Y-110642857D01*
X124880953Y-110738095D01*
X124833334Y-110880952D01*
X124261905Y-111452381D01*
X124880953Y-111452381D01*
X125261905Y-110547619D02*
X125309524Y-110500000D01*
X125404762Y-110452381D01*
X125642858Y-110452381D01*
X125738096Y-110500000D01*
X125785715Y-110547619D01*
X125833334Y-110642857D01*
X125833334Y-110738095D01*
X125785715Y-110880952D01*
X125214286Y-111452381D01*
X125833334Y-111452381D01*
X126404762Y-110880952D02*
X126309524Y-110833333D01*
X126261905Y-110785714D01*
X126214286Y-110690476D01*
X126214286Y-110642857D01*
X126261905Y-110547619D01*
X126309524Y-110500000D01*
X126404762Y-110452381D01*
X126595239Y-110452381D01*
X126690477Y-110500000D01*
X126738096Y-110547619D01*
X126785715Y-110642857D01*
X126785715Y-110690476D01*
X126738096Y-110785714D01*
X126690477Y-110833333D01*
X126595239Y-110880952D01*
X126404762Y-110880952D01*
X126309524Y-110928571D01*
X126261905Y-110976190D01*
X126214286Y-111071429D01*
X126214286Y-111261905D01*
X126261905Y-111357143D01*
X126309524Y-111404762D01*
X126404762Y-111452381D01*
X126595239Y-111452381D01*
X126690477Y-111404762D01*
X126738096Y-111357143D01*
X126785715Y-111261905D01*
X126785715Y-111071429D01*
X126738096Y-110976190D01*
X126690477Y-110928571D01*
X126595239Y-110880952D01*
X127738096Y-111452381D02*
X127166667Y-111452381D01*
X127452381Y-111452381D02*
X127452381Y-110452381D01*
X127357143Y-110595238D01*
X127261905Y-110690476D01*
X127166667Y-110738095D01*
X128690477Y-111452381D02*
X128119048Y-111452381D01*
X128404762Y-111452381D02*
X128404762Y-110452381D01*
X128309524Y-110595238D01*
X128214286Y-110690476D01*
X128119048Y-110738095D01*
X129071429Y-111166667D02*
X129547620Y-111166667D01*
X128976191Y-111452381D02*
X129309524Y-110452381D01*
X129642858Y-111452381D01*
D12*
X125476190Y-111630952D02*
X125880952Y-111630952D01*
X125928571Y-111607143D01*
X125952381Y-111583333D01*
X125976190Y-111535714D01*
X125976190Y-111440476D01*
X125952381Y-111392857D01*
X125928571Y-111369048D01*
X125880952Y-111345238D01*
X125476190Y-111345238D01*
X125476190Y-111154761D02*
X125476190Y-110845238D01*
X125666667Y-111011904D01*
X125666667Y-110940476D01*
X125690476Y-110892857D01*
X125714286Y-110869047D01*
X125761905Y-110845238D01*
X125880952Y-110845238D01*
X125928571Y-110869047D01*
X125952381Y-110892857D01*
X125976190Y-110940476D01*
X125976190Y-111083333D01*
X125952381Y-111130952D01*
X125928571Y-111154761D01*
D11*
X153880952Y-108452381D02*
X153880952Y-107452381D01*
X154452381Y-108452381D02*
X154023809Y-107880952D01*
X154452381Y-107452381D02*
X153880952Y-108023810D01*
X155261905Y-108404762D02*
X155166667Y-108452381D01*
X154976190Y-108452381D01*
X154880952Y-108404762D01*
X154833333Y-108309524D01*
X154833333Y-107928571D01*
X154880952Y-107833333D01*
X154976190Y-107785714D01*
X155166667Y-107785714D01*
X155261905Y-107833333D01*
X155309524Y-107928571D01*
X155309524Y-108023810D01*
X154833333Y-108119048D01*
X155642857Y-107785714D02*
X155880952Y-108452381D01*
X156119048Y-107785714D02*
X155880952Y-108452381D01*
X155785714Y-108690476D01*
X155738095Y-108738095D01*
X155642857Y-108785714D01*
X156452381Y-108404762D02*
X156547619Y-108452381D01*
X156738095Y-108452381D01*
X156833334Y-108404762D01*
X156880953Y-108309524D01*
X156880953Y-108261905D01*
X156833334Y-108166667D01*
X156738095Y-108119048D01*
X156595238Y-108119048D01*
X156500000Y-108071429D01*
X156452381Y-107976190D01*
X156452381Y-107928571D01*
X156500000Y-107833333D01*
X156595238Y-107785714D01*
X156738095Y-107785714D01*
X156833334Y-107833333D01*
X157166667Y-107785714D02*
X157547619Y-107785714D01*
X157309524Y-107452381D02*
X157309524Y-108309524D01*
X157357143Y-108404762D01*
X157452381Y-108452381D01*
X157547619Y-108452381D01*
X158023810Y-108452381D02*
X157928572Y-108404762D01*
X157880953Y-108357143D01*
X157833334Y-108261905D01*
X157833334Y-107976190D01*
X157880953Y-107880952D01*
X157928572Y-107833333D01*
X158023810Y-107785714D01*
X158166668Y-107785714D01*
X158261906Y-107833333D01*
X158309525Y-107880952D01*
X158357144Y-107976190D01*
X158357144Y-108261905D01*
X158309525Y-108357143D01*
X158261906Y-108404762D01*
X158166668Y-108452381D01*
X158023810Y-108452381D01*
X158785715Y-107785714D02*
X158785715Y-108452381D01*
X158785715Y-107880952D02*
X158833334Y-107833333D01*
X158928572Y-107785714D01*
X159071430Y-107785714D01*
X159166668Y-107833333D01*
X159214287Y-107928571D01*
X159214287Y-108452381D01*
X160071430Y-108404762D02*
X159976192Y-108452381D01*
X159785715Y-108452381D01*
X159690477Y-108404762D01*
X159642858Y-108309524D01*
X159642858Y-107928571D01*
X159690477Y-107833333D01*
X159785715Y-107785714D01*
X159976192Y-107785714D01*
X160071430Y-107833333D01*
X160119049Y-107928571D01*
X160119049Y-108023810D01*
X159642858Y-108119048D01*
X160547620Y-108071429D02*
X161309525Y-108071429D01*
X161690477Y-107452381D02*
X162357144Y-107452381D01*
X161928572Y-108452381D01*
X162642858Y-107452381D02*
X163309525Y-107452381D01*
X162880953Y-108452381D01*
X163738096Y-108452381D02*
X163928572Y-108452381D01*
X164023811Y-108404762D01*
X164071430Y-108357143D01*
X164166668Y-108214286D01*
X164214287Y-108023810D01*
X164214287Y-107642857D01*
X164166668Y-107547619D01*
X164119049Y-107500000D01*
X164023811Y-107452381D01*
X163833334Y-107452381D01*
X163738096Y-107500000D01*
X163690477Y-107547619D01*
X163642858Y-107642857D01*
X163642858Y-107880952D01*
X163690477Y-107976190D01*
X163738096Y-108023810D01*
X163833334Y-108071429D01*
X164023811Y-108071429D01*
X164119049Y-108023810D01*
X164166668Y-107976190D01*
X164214287Y-107880952D01*
X164833334Y-107452381D02*
X164928573Y-107452381D01*
X165023811Y-107500000D01*
X165071430Y-107547619D01*
X165119049Y-107642857D01*
X165166668Y-107833333D01*
X165166668Y-108071429D01*
X165119049Y-108261905D01*
X165071430Y-108357143D01*
X165023811Y-108404762D01*
X164928573Y-108452381D01*
X164833334Y-108452381D01*
X164738096Y-108404762D01*
X164690477Y-108357143D01*
X164642858Y-108261905D01*
X164595239Y-108071429D01*
X164595239Y-107833333D01*
X164642858Y-107642857D01*
X164690477Y-107547619D01*
X164738096Y-107500000D01*
X164833334Y-107452381D01*
X135380952Y-108452381D02*
X135380952Y-107452381D01*
X135952381Y-108452381D02*
X135523809Y-107880952D01*
X135952381Y-107452381D02*
X135380952Y-108023810D01*
X136761905Y-108404762D02*
X136666667Y-108452381D01*
X136476190Y-108452381D01*
X136380952Y-108404762D01*
X136333333Y-108309524D01*
X136333333Y-107928571D01*
X136380952Y-107833333D01*
X136476190Y-107785714D01*
X136666667Y-107785714D01*
X136761905Y-107833333D01*
X136809524Y-107928571D01*
X136809524Y-108023810D01*
X136333333Y-108119048D01*
X137142857Y-107785714D02*
X137380952Y-108452381D01*
X137619048Y-107785714D02*
X137380952Y-108452381D01*
X137285714Y-108690476D01*
X137238095Y-108738095D01*
X137142857Y-108785714D01*
X137952381Y-108404762D02*
X138047619Y-108452381D01*
X138238095Y-108452381D01*
X138333334Y-108404762D01*
X138380953Y-108309524D01*
X138380953Y-108261905D01*
X138333334Y-108166667D01*
X138238095Y-108119048D01*
X138095238Y-108119048D01*
X138000000Y-108071429D01*
X137952381Y-107976190D01*
X137952381Y-107928571D01*
X138000000Y-107833333D01*
X138095238Y-107785714D01*
X138238095Y-107785714D01*
X138333334Y-107833333D01*
X138666667Y-107785714D02*
X139047619Y-107785714D01*
X138809524Y-107452381D02*
X138809524Y-108309524D01*
X138857143Y-108404762D01*
X138952381Y-108452381D01*
X139047619Y-108452381D01*
X139523810Y-108452381D02*
X139428572Y-108404762D01*
X139380953Y-108357143D01*
X139333334Y-108261905D01*
X139333334Y-107976190D01*
X139380953Y-107880952D01*
X139428572Y-107833333D01*
X139523810Y-107785714D01*
X139666668Y-107785714D01*
X139761906Y-107833333D01*
X139809525Y-107880952D01*
X139857144Y-107976190D01*
X139857144Y-108261905D01*
X139809525Y-108357143D01*
X139761906Y-108404762D01*
X139666668Y-108452381D01*
X139523810Y-108452381D01*
X140285715Y-107785714D02*
X140285715Y-108452381D01*
X140285715Y-107880952D02*
X140333334Y-107833333D01*
X140428572Y-107785714D01*
X140571430Y-107785714D01*
X140666668Y-107833333D01*
X140714287Y-107928571D01*
X140714287Y-108452381D01*
X141571430Y-108404762D02*
X141476192Y-108452381D01*
X141285715Y-108452381D01*
X141190477Y-108404762D01*
X141142858Y-108309524D01*
X141142858Y-107928571D01*
X141190477Y-107833333D01*
X141285715Y-107785714D01*
X141476192Y-107785714D01*
X141571430Y-107833333D01*
X141619049Y-107928571D01*
X141619049Y-108023810D01*
X141142858Y-108119048D01*
X142047620Y-108071429D02*
X142809525Y-108071429D01*
X143190477Y-107452381D02*
X143857144Y-107452381D01*
X143428572Y-108452381D01*
X144142858Y-107452381D02*
X144809525Y-107452381D01*
X144380953Y-108452381D01*
X145238096Y-108452381D02*
X145428572Y-108452381D01*
X145523811Y-108404762D01*
X145571430Y-108357143D01*
X145666668Y-108214286D01*
X145714287Y-108023810D01*
X145714287Y-107642857D01*
X145666668Y-107547619D01*
X145619049Y-107500000D01*
X145523811Y-107452381D01*
X145333334Y-107452381D01*
X145238096Y-107500000D01*
X145190477Y-107547619D01*
X145142858Y-107642857D01*
X145142858Y-107880952D01*
X145190477Y-107976190D01*
X145238096Y-108023810D01*
X145333334Y-108071429D01*
X145523811Y-108071429D01*
X145619049Y-108023810D01*
X145666668Y-107976190D01*
X145714287Y-107880952D01*
X146333334Y-107452381D02*
X146428573Y-107452381D01*
X146523811Y-107500000D01*
X146571430Y-107547619D01*
X146619049Y-107642857D01*
X146666668Y-107833333D01*
X146666668Y-108071429D01*
X146619049Y-108261905D01*
X146571430Y-108357143D01*
X146523811Y-108404762D01*
X146428573Y-108452381D01*
X146333334Y-108452381D01*
X146238096Y-108404762D01*
X146190477Y-108357143D01*
X146142858Y-108261905D01*
X146095239Y-108071429D01*
X146095239Y-107833333D01*
X146142858Y-107642857D01*
X146190477Y-107547619D01*
X146238096Y-107500000D01*
X146333334Y-107452381D01*
M02*
