G04 #@! TF.FileFunction,Copper,L2,Bot,Signal*
%FSLAX46Y46*%
G04 Gerber Fmt 4.6, Leading zero omitted, Abs format (unit mm)*
G04 Created by KiCad (PCBNEW 4.0.6) date 04/12/18 14:55:28*
%MOMM*%
%LPD*%
G01*
G04 APERTURE LIST*
%ADD10C,0.100000*%
%ADD11O,1.100000X1.500000*%
%ADD12O,1.200000X1.700000*%
%ADD13C,1.524000*%
%ADD14C,3.000000*%
%ADD15C,1.000000*%
%ADD16C,0.600000*%
%ADD17C,1.200000*%
%ADD18C,0.250000*%
%ADD19C,0.254000*%
G04 APERTURE END LIST*
D10*
D11*
X147830000Y-110130000D03*
X152670000Y-110130000D03*
D12*
X147520000Y-113130000D03*
X152980000Y-113130000D03*
D13*
X117250000Y-105040000D03*
X117250000Y-102500000D03*
D14*
X155750000Y-110250000D03*
X155750000Y-105250000D03*
X163250000Y-105250000D03*
X163250000Y-110250000D03*
X137250000Y-110250000D03*
X137250000Y-105250000D03*
X144750000Y-105250000D03*
X144750000Y-110250000D03*
D15*
X153250000Y-106250000D03*
X122750000Y-111250000D03*
D16*
X133750000Y-112000000D03*
D15*
X129750000Y-105500000D03*
D17*
X116000000Y-110750000D03*
D15*
X123000000Y-105500000D03*
X123000000Y-102750000D03*
D16*
X148500000Y-107250000D03*
X135000000Y-110000000D03*
X151000000Y-108250000D03*
X138500000Y-112250000D03*
X131500000Y-109000000D03*
X132000000Y-113000000D03*
X130750000Y-110750000D03*
X129750000Y-109250000D03*
D18*
X148500000Y-107250000D02*
X148000000Y-107750000D01*
X148000000Y-107750000D02*
X136750000Y-107750000D01*
X136750000Y-107750000D02*
X136500000Y-108000000D01*
X135000000Y-109500000D02*
X136500000Y-108000000D01*
X135000000Y-110000000D02*
X135000000Y-109500000D01*
X145250000Y-108250000D02*
X151000000Y-108250000D01*
X138500000Y-112250000D02*
X142500000Y-108250000D01*
X142500000Y-108250000D02*
X145250000Y-108250000D01*
X131500000Y-112500000D02*
X131500000Y-109000000D01*
X132000000Y-113000000D02*
X131500000Y-112500000D01*
X130750000Y-110750000D02*
X129750000Y-109750000D01*
X129750000Y-109750000D02*
X129750000Y-109250000D01*
D19*
G36*
X167373000Y-114823000D02*
X135627000Y-114823000D01*
X135627000Y-114000000D01*
X135616994Y-113950590D01*
X135588553Y-113908965D01*
X135546159Y-113881685D01*
X135500000Y-113873000D01*
X135189592Y-113873000D01*
X135163406Y-113855503D01*
X135000000Y-113823000D01*
X114627000Y-113823000D01*
X114627000Y-109384073D01*
X129072883Y-109384073D01*
X129175733Y-109632989D01*
X129248000Y-109705382D01*
X129248000Y-109749995D01*
X129247999Y-109750000D01*
X129286212Y-109942107D01*
X129395032Y-110104968D01*
X130072971Y-110782907D01*
X130072883Y-110884073D01*
X130175733Y-111132989D01*
X130366010Y-111323598D01*
X130614746Y-111426882D01*
X130884073Y-111427117D01*
X130998000Y-111380043D01*
X130998000Y-112499995D01*
X130997999Y-112500000D01*
X131036212Y-112692107D01*
X131145032Y-112854968D01*
X131322971Y-113032907D01*
X131322883Y-113134073D01*
X131425733Y-113382989D01*
X131616010Y-113573598D01*
X131864746Y-113676882D01*
X132134073Y-113677117D01*
X132382989Y-113574267D01*
X132386008Y-113571253D01*
X146299694Y-113571253D01*
X146465774Y-114023686D01*
X146792350Y-114378123D01*
X147085792Y-114536152D01*
X147272000Y-114427287D01*
X147272000Y-113378000D01*
X147768000Y-113378000D01*
X147768000Y-114427287D01*
X147954208Y-114536152D01*
X148247650Y-114378123D01*
X148574226Y-114023686D01*
X148740306Y-113571253D01*
X151759694Y-113571253D01*
X151925774Y-114023686D01*
X152252350Y-114378123D01*
X152545792Y-114536152D01*
X152732000Y-114427287D01*
X152732000Y-113378000D01*
X153228000Y-113378000D01*
X153228000Y-114427287D01*
X153414208Y-114536152D01*
X153707650Y-114378123D01*
X154034226Y-114023686D01*
X154200306Y-113571253D01*
X154056451Y-113378000D01*
X153228000Y-113378000D01*
X152732000Y-113378000D01*
X151903549Y-113378000D01*
X151759694Y-113571253D01*
X148740306Y-113571253D01*
X148596451Y-113378000D01*
X147768000Y-113378000D01*
X147272000Y-113378000D01*
X146443549Y-113378000D01*
X146299694Y-113571253D01*
X132386008Y-113571253D01*
X132573598Y-113383990D01*
X132676882Y-113135254D01*
X132677117Y-112865927D01*
X132574267Y-112617011D01*
X132383990Y-112426402D01*
X132135254Y-112323118D01*
X132032964Y-112323029D01*
X132002000Y-112292064D01*
X132002000Y-110134073D01*
X134322883Y-110134073D01*
X134425733Y-110382989D01*
X134616010Y-110573598D01*
X134864746Y-110676882D01*
X135134073Y-110677117D01*
X135372713Y-110578513D01*
X135372675Y-110621720D01*
X135657829Y-111311846D01*
X136185376Y-111840316D01*
X136875004Y-112126674D01*
X137621720Y-112127325D01*
X137858524Y-112029480D01*
X137823118Y-112114746D01*
X137822883Y-112384073D01*
X137925733Y-112632989D01*
X138116010Y-112823598D01*
X138364746Y-112926882D01*
X138634073Y-112927117D01*
X138882989Y-112824267D01*
X139018745Y-112688747D01*
X146299694Y-112688747D01*
X146443549Y-112882000D01*
X147272000Y-112882000D01*
X147272000Y-111832713D01*
X147768000Y-111832713D01*
X147768000Y-112882000D01*
X148596451Y-112882000D01*
X148740306Y-112688747D01*
X151759694Y-112688747D01*
X151903549Y-112882000D01*
X152732000Y-112882000D01*
X152732000Y-111832713D01*
X153228000Y-111832713D01*
X153228000Y-112882000D01*
X154056451Y-112882000D01*
X154200306Y-112688747D01*
X154034226Y-112236314D01*
X153707650Y-111881877D01*
X153414208Y-111723848D01*
X153228000Y-111832713D01*
X152732000Y-111832713D01*
X152545792Y-111723848D01*
X152252350Y-111881877D01*
X151925774Y-112236314D01*
X151759694Y-112688747D01*
X148740306Y-112688747D01*
X148574226Y-112236314D01*
X148247650Y-111881877D01*
X147954208Y-111723848D01*
X147768000Y-111832713D01*
X147272000Y-111832713D01*
X147085792Y-111723848D01*
X146792350Y-111881877D01*
X146465774Y-112236314D01*
X146299694Y-112688747D01*
X139018745Y-112688747D01*
X139073598Y-112633990D01*
X139176882Y-112385254D01*
X139176971Y-112282965D01*
X142707935Y-108752000D01*
X143593818Y-108752000D01*
X143159684Y-109185376D01*
X142873326Y-109875004D01*
X142872675Y-110621720D01*
X143157829Y-111311846D01*
X143685376Y-111840316D01*
X144375004Y-112126674D01*
X145121720Y-112127325D01*
X145811846Y-111842171D01*
X146340316Y-111314624D01*
X146626674Y-110624996D01*
X146626728Y-110561997D01*
X146672065Y-110561997D01*
X146848989Y-110987460D01*
X147175263Y-111312830D01*
X147403784Y-111435696D01*
X147582000Y-111325834D01*
X147582000Y-110378000D01*
X148078000Y-110378000D01*
X148078000Y-111325834D01*
X148256216Y-111435696D01*
X148484737Y-111312830D01*
X148811011Y-110987460D01*
X148987935Y-110561997D01*
X151512065Y-110561997D01*
X151688989Y-110987460D01*
X152015263Y-111312830D01*
X152243784Y-111435696D01*
X152422000Y-111325834D01*
X152422000Y-110378000D01*
X152918000Y-110378000D01*
X152918000Y-111325834D01*
X153096216Y-111435696D01*
X153324737Y-111312830D01*
X153651011Y-110987460D01*
X153803099Y-110621720D01*
X153872675Y-110621720D01*
X154157829Y-111311846D01*
X154685376Y-111840316D01*
X155375004Y-112126674D01*
X156121720Y-112127325D01*
X156811846Y-111842171D01*
X157340316Y-111314624D01*
X157626674Y-110624996D01*
X157626676Y-110621720D01*
X161372675Y-110621720D01*
X161657829Y-111311846D01*
X162185376Y-111840316D01*
X162875004Y-112126674D01*
X163621720Y-112127325D01*
X164311846Y-111842171D01*
X164840316Y-111314624D01*
X165126674Y-110624996D01*
X165127325Y-109878280D01*
X164842171Y-109188154D01*
X164314624Y-108659684D01*
X163624996Y-108373326D01*
X162878280Y-108372675D01*
X162188154Y-108657829D01*
X161659684Y-109185376D01*
X161373326Y-109875004D01*
X161372675Y-110621720D01*
X157626676Y-110621720D01*
X157627325Y-109878280D01*
X157342171Y-109188154D01*
X156814624Y-108659684D01*
X156124996Y-108373326D01*
X155378280Y-108372675D01*
X154688154Y-108657829D01*
X154159684Y-109185376D01*
X153873326Y-109875004D01*
X153872675Y-110621720D01*
X153803099Y-110621720D01*
X153827935Y-110561997D01*
X153691221Y-110378000D01*
X152918000Y-110378000D01*
X152422000Y-110378000D01*
X151648779Y-110378000D01*
X151512065Y-110561997D01*
X148987935Y-110561997D01*
X148851221Y-110378000D01*
X148078000Y-110378000D01*
X147582000Y-110378000D01*
X146808779Y-110378000D01*
X146672065Y-110561997D01*
X146626728Y-110561997D01*
X146627325Y-109878280D01*
X146342171Y-109188154D01*
X145906779Y-108752000D01*
X147581998Y-108752000D01*
X147581998Y-108934165D01*
X147403784Y-108824304D01*
X147175263Y-108947170D01*
X146848989Y-109272540D01*
X146672065Y-109698003D01*
X146808779Y-109882000D01*
X147582000Y-109882000D01*
X147582000Y-109862000D01*
X148078000Y-109862000D01*
X148078000Y-109882000D01*
X148851221Y-109882000D01*
X148987935Y-109698003D01*
X151512065Y-109698003D01*
X151648779Y-109882000D01*
X152422000Y-109882000D01*
X152422000Y-108934166D01*
X152918000Y-108934166D01*
X152918000Y-109882000D01*
X153691221Y-109882000D01*
X153827935Y-109698003D01*
X153651011Y-109272540D01*
X153324737Y-108947170D01*
X153096216Y-108824304D01*
X152918000Y-108934166D01*
X152422000Y-108934166D01*
X152243784Y-108824304D01*
X152015263Y-108947170D01*
X151688989Y-109272540D01*
X151512065Y-109698003D01*
X148987935Y-109698003D01*
X148811011Y-109272540D01*
X148484737Y-108947170D01*
X148256216Y-108824304D01*
X148078002Y-108934165D01*
X148078002Y-108752000D01*
X150544537Y-108752000D01*
X150616010Y-108823598D01*
X150864746Y-108926882D01*
X151134073Y-108927117D01*
X151382989Y-108824267D01*
X151573598Y-108633990D01*
X151676882Y-108385254D01*
X151677117Y-108115927D01*
X151574267Y-107867011D01*
X151383990Y-107676402D01*
X151135254Y-107573118D01*
X150865927Y-107572883D01*
X150617011Y-107675733D01*
X150544618Y-107748000D01*
X148959389Y-107748000D01*
X149073598Y-107633990D01*
X149176882Y-107385254D01*
X149177117Y-107115927D01*
X149074267Y-106867011D01*
X148883990Y-106676402D01*
X148635254Y-106573118D01*
X148365927Y-106572883D01*
X148117011Y-106675733D01*
X147926402Y-106866010D01*
X147823118Y-107114746D01*
X147823029Y-107217036D01*
X147792064Y-107248000D01*
X136750000Y-107248000D01*
X136557892Y-107286212D01*
X136492660Y-107329800D01*
X136395032Y-107395032D01*
X136395030Y-107395035D01*
X136145032Y-107645032D01*
X136145030Y-107645035D01*
X134645032Y-109145032D01*
X134536212Y-109307893D01*
X134497999Y-109500000D01*
X134498000Y-109500005D01*
X134498000Y-109544537D01*
X134426402Y-109616010D01*
X134323118Y-109864746D01*
X134322883Y-110134073D01*
X132002000Y-110134073D01*
X132002000Y-109455463D01*
X132073598Y-109383990D01*
X132176882Y-109135254D01*
X132177117Y-108865927D01*
X132074267Y-108617011D01*
X131883990Y-108426402D01*
X131635254Y-108323118D01*
X131365927Y-108322883D01*
X131117011Y-108425733D01*
X130926402Y-108616010D01*
X130823118Y-108864746D01*
X130822883Y-109134073D01*
X130925733Y-109382989D01*
X130998000Y-109455382D01*
X130998000Y-110119934D01*
X130885254Y-110073118D01*
X130782964Y-110073029D01*
X130329562Y-109619626D01*
X130426882Y-109385254D01*
X130427117Y-109115927D01*
X130324267Y-108867011D01*
X130133990Y-108676402D01*
X129885254Y-108573118D01*
X129615927Y-108572883D01*
X129367011Y-108675733D01*
X129176402Y-108866010D01*
X129073118Y-109114746D01*
X129072883Y-109384073D01*
X114627000Y-109384073D01*
X114627000Y-106092941D01*
X116547784Y-106092941D01*
X116626201Y-106320509D01*
X117163714Y-106461753D01*
X117714364Y-106386549D01*
X117873799Y-106320509D01*
X117952216Y-106092941D01*
X117250000Y-105390725D01*
X116547784Y-106092941D01*
X114627000Y-106092941D01*
X114627000Y-104953714D01*
X115828247Y-104953714D01*
X115903451Y-105504364D01*
X115969491Y-105663799D01*
X116197059Y-105742216D01*
X116899275Y-105040000D01*
X117600725Y-105040000D01*
X118302941Y-105742216D01*
X118530509Y-105663799D01*
X118541566Y-105621720D01*
X135372675Y-105621720D01*
X135657829Y-106311846D01*
X136185376Y-106840316D01*
X136875004Y-107126674D01*
X137621720Y-107127325D01*
X138311846Y-106842171D01*
X138840316Y-106314624D01*
X139126674Y-105624996D01*
X139126676Y-105621720D01*
X142872675Y-105621720D01*
X143157829Y-106311846D01*
X143685376Y-106840316D01*
X144375004Y-107126674D01*
X145121720Y-107127325D01*
X145811846Y-106842171D01*
X146340316Y-106314624D01*
X146626674Y-105624996D01*
X146626676Y-105621720D01*
X153872675Y-105621720D01*
X154157829Y-106311846D01*
X154685376Y-106840316D01*
X155375004Y-107126674D01*
X156121720Y-107127325D01*
X156811846Y-106842171D01*
X157340316Y-106314624D01*
X157626674Y-105624996D01*
X157626676Y-105621720D01*
X161372675Y-105621720D01*
X161657829Y-106311846D01*
X162185376Y-106840316D01*
X162875004Y-107126674D01*
X163621720Y-107127325D01*
X164311846Y-106842171D01*
X164840316Y-106314624D01*
X165126674Y-105624996D01*
X165127325Y-104878280D01*
X164842171Y-104188154D01*
X164314624Y-103659684D01*
X163624996Y-103373326D01*
X162878280Y-103372675D01*
X162188154Y-103657829D01*
X161659684Y-104185376D01*
X161373326Y-104875004D01*
X161372675Y-105621720D01*
X157626676Y-105621720D01*
X157627325Y-104878280D01*
X157342171Y-104188154D01*
X156814624Y-103659684D01*
X156124996Y-103373326D01*
X155378280Y-103372675D01*
X154688154Y-103657829D01*
X154159684Y-104185376D01*
X153873326Y-104875004D01*
X153872675Y-105621720D01*
X146626676Y-105621720D01*
X146627325Y-104878280D01*
X146342171Y-104188154D01*
X145814624Y-103659684D01*
X145124996Y-103373326D01*
X144378280Y-103372675D01*
X143688154Y-103657829D01*
X143159684Y-104185376D01*
X142873326Y-104875004D01*
X142872675Y-105621720D01*
X139126676Y-105621720D01*
X139127325Y-104878280D01*
X138842171Y-104188154D01*
X138314624Y-103659684D01*
X137624996Y-103373326D01*
X136878280Y-103372675D01*
X136188154Y-103657829D01*
X135659684Y-104185376D01*
X135373326Y-104875004D01*
X135372675Y-105621720D01*
X118541566Y-105621720D01*
X118671753Y-105126286D01*
X118596549Y-104575636D01*
X118530509Y-104416201D01*
X118302941Y-104337784D01*
X117600725Y-105040000D01*
X116899275Y-105040000D01*
X116197059Y-104337784D01*
X115969491Y-104416201D01*
X115828247Y-104953714D01*
X114627000Y-104953714D01*
X114627000Y-102725567D01*
X116110803Y-102725567D01*
X116283840Y-103144349D01*
X116603966Y-103465034D01*
X117022445Y-103638802D01*
X117184745Y-103638943D01*
X116785636Y-103693451D01*
X116626201Y-103759491D01*
X116547784Y-103987059D01*
X117250000Y-104689275D01*
X117952216Y-103987059D01*
X117873799Y-103759491D01*
X117415814Y-103639145D01*
X117475567Y-103639197D01*
X117894349Y-103466160D01*
X118215034Y-103146034D01*
X118388802Y-102727555D01*
X118389197Y-102274433D01*
X118216160Y-101855651D01*
X117896034Y-101534966D01*
X117477555Y-101361198D01*
X117024433Y-101360803D01*
X116605651Y-101533840D01*
X116284966Y-101853966D01*
X116111198Y-102272445D01*
X116110803Y-102725567D01*
X114627000Y-102725567D01*
X114627000Y-100677000D01*
X167373000Y-100677000D01*
X167373000Y-114823000D01*
X167373000Y-114823000D01*
G37*
X167373000Y-114823000D02*
X135627000Y-114823000D01*
X135627000Y-114000000D01*
X135616994Y-113950590D01*
X135588553Y-113908965D01*
X135546159Y-113881685D01*
X135500000Y-113873000D01*
X135189592Y-113873000D01*
X135163406Y-113855503D01*
X135000000Y-113823000D01*
X114627000Y-113823000D01*
X114627000Y-109384073D01*
X129072883Y-109384073D01*
X129175733Y-109632989D01*
X129248000Y-109705382D01*
X129248000Y-109749995D01*
X129247999Y-109750000D01*
X129286212Y-109942107D01*
X129395032Y-110104968D01*
X130072971Y-110782907D01*
X130072883Y-110884073D01*
X130175733Y-111132989D01*
X130366010Y-111323598D01*
X130614746Y-111426882D01*
X130884073Y-111427117D01*
X130998000Y-111380043D01*
X130998000Y-112499995D01*
X130997999Y-112500000D01*
X131036212Y-112692107D01*
X131145032Y-112854968D01*
X131322971Y-113032907D01*
X131322883Y-113134073D01*
X131425733Y-113382989D01*
X131616010Y-113573598D01*
X131864746Y-113676882D01*
X132134073Y-113677117D01*
X132382989Y-113574267D01*
X132386008Y-113571253D01*
X146299694Y-113571253D01*
X146465774Y-114023686D01*
X146792350Y-114378123D01*
X147085792Y-114536152D01*
X147272000Y-114427287D01*
X147272000Y-113378000D01*
X147768000Y-113378000D01*
X147768000Y-114427287D01*
X147954208Y-114536152D01*
X148247650Y-114378123D01*
X148574226Y-114023686D01*
X148740306Y-113571253D01*
X151759694Y-113571253D01*
X151925774Y-114023686D01*
X152252350Y-114378123D01*
X152545792Y-114536152D01*
X152732000Y-114427287D01*
X152732000Y-113378000D01*
X153228000Y-113378000D01*
X153228000Y-114427287D01*
X153414208Y-114536152D01*
X153707650Y-114378123D01*
X154034226Y-114023686D01*
X154200306Y-113571253D01*
X154056451Y-113378000D01*
X153228000Y-113378000D01*
X152732000Y-113378000D01*
X151903549Y-113378000D01*
X151759694Y-113571253D01*
X148740306Y-113571253D01*
X148596451Y-113378000D01*
X147768000Y-113378000D01*
X147272000Y-113378000D01*
X146443549Y-113378000D01*
X146299694Y-113571253D01*
X132386008Y-113571253D01*
X132573598Y-113383990D01*
X132676882Y-113135254D01*
X132677117Y-112865927D01*
X132574267Y-112617011D01*
X132383990Y-112426402D01*
X132135254Y-112323118D01*
X132032964Y-112323029D01*
X132002000Y-112292064D01*
X132002000Y-110134073D01*
X134322883Y-110134073D01*
X134425733Y-110382989D01*
X134616010Y-110573598D01*
X134864746Y-110676882D01*
X135134073Y-110677117D01*
X135372713Y-110578513D01*
X135372675Y-110621720D01*
X135657829Y-111311846D01*
X136185376Y-111840316D01*
X136875004Y-112126674D01*
X137621720Y-112127325D01*
X137858524Y-112029480D01*
X137823118Y-112114746D01*
X137822883Y-112384073D01*
X137925733Y-112632989D01*
X138116010Y-112823598D01*
X138364746Y-112926882D01*
X138634073Y-112927117D01*
X138882989Y-112824267D01*
X139018745Y-112688747D01*
X146299694Y-112688747D01*
X146443549Y-112882000D01*
X147272000Y-112882000D01*
X147272000Y-111832713D01*
X147768000Y-111832713D01*
X147768000Y-112882000D01*
X148596451Y-112882000D01*
X148740306Y-112688747D01*
X151759694Y-112688747D01*
X151903549Y-112882000D01*
X152732000Y-112882000D01*
X152732000Y-111832713D01*
X153228000Y-111832713D01*
X153228000Y-112882000D01*
X154056451Y-112882000D01*
X154200306Y-112688747D01*
X154034226Y-112236314D01*
X153707650Y-111881877D01*
X153414208Y-111723848D01*
X153228000Y-111832713D01*
X152732000Y-111832713D01*
X152545792Y-111723848D01*
X152252350Y-111881877D01*
X151925774Y-112236314D01*
X151759694Y-112688747D01*
X148740306Y-112688747D01*
X148574226Y-112236314D01*
X148247650Y-111881877D01*
X147954208Y-111723848D01*
X147768000Y-111832713D01*
X147272000Y-111832713D01*
X147085792Y-111723848D01*
X146792350Y-111881877D01*
X146465774Y-112236314D01*
X146299694Y-112688747D01*
X139018745Y-112688747D01*
X139073598Y-112633990D01*
X139176882Y-112385254D01*
X139176971Y-112282965D01*
X142707935Y-108752000D01*
X143593818Y-108752000D01*
X143159684Y-109185376D01*
X142873326Y-109875004D01*
X142872675Y-110621720D01*
X143157829Y-111311846D01*
X143685376Y-111840316D01*
X144375004Y-112126674D01*
X145121720Y-112127325D01*
X145811846Y-111842171D01*
X146340316Y-111314624D01*
X146626674Y-110624996D01*
X146626728Y-110561997D01*
X146672065Y-110561997D01*
X146848989Y-110987460D01*
X147175263Y-111312830D01*
X147403784Y-111435696D01*
X147582000Y-111325834D01*
X147582000Y-110378000D01*
X148078000Y-110378000D01*
X148078000Y-111325834D01*
X148256216Y-111435696D01*
X148484737Y-111312830D01*
X148811011Y-110987460D01*
X148987935Y-110561997D01*
X151512065Y-110561997D01*
X151688989Y-110987460D01*
X152015263Y-111312830D01*
X152243784Y-111435696D01*
X152422000Y-111325834D01*
X152422000Y-110378000D01*
X152918000Y-110378000D01*
X152918000Y-111325834D01*
X153096216Y-111435696D01*
X153324737Y-111312830D01*
X153651011Y-110987460D01*
X153803099Y-110621720D01*
X153872675Y-110621720D01*
X154157829Y-111311846D01*
X154685376Y-111840316D01*
X155375004Y-112126674D01*
X156121720Y-112127325D01*
X156811846Y-111842171D01*
X157340316Y-111314624D01*
X157626674Y-110624996D01*
X157626676Y-110621720D01*
X161372675Y-110621720D01*
X161657829Y-111311846D01*
X162185376Y-111840316D01*
X162875004Y-112126674D01*
X163621720Y-112127325D01*
X164311846Y-111842171D01*
X164840316Y-111314624D01*
X165126674Y-110624996D01*
X165127325Y-109878280D01*
X164842171Y-109188154D01*
X164314624Y-108659684D01*
X163624996Y-108373326D01*
X162878280Y-108372675D01*
X162188154Y-108657829D01*
X161659684Y-109185376D01*
X161373326Y-109875004D01*
X161372675Y-110621720D01*
X157626676Y-110621720D01*
X157627325Y-109878280D01*
X157342171Y-109188154D01*
X156814624Y-108659684D01*
X156124996Y-108373326D01*
X155378280Y-108372675D01*
X154688154Y-108657829D01*
X154159684Y-109185376D01*
X153873326Y-109875004D01*
X153872675Y-110621720D01*
X153803099Y-110621720D01*
X153827935Y-110561997D01*
X153691221Y-110378000D01*
X152918000Y-110378000D01*
X152422000Y-110378000D01*
X151648779Y-110378000D01*
X151512065Y-110561997D01*
X148987935Y-110561997D01*
X148851221Y-110378000D01*
X148078000Y-110378000D01*
X147582000Y-110378000D01*
X146808779Y-110378000D01*
X146672065Y-110561997D01*
X146626728Y-110561997D01*
X146627325Y-109878280D01*
X146342171Y-109188154D01*
X145906779Y-108752000D01*
X147581998Y-108752000D01*
X147581998Y-108934165D01*
X147403784Y-108824304D01*
X147175263Y-108947170D01*
X146848989Y-109272540D01*
X146672065Y-109698003D01*
X146808779Y-109882000D01*
X147582000Y-109882000D01*
X147582000Y-109862000D01*
X148078000Y-109862000D01*
X148078000Y-109882000D01*
X148851221Y-109882000D01*
X148987935Y-109698003D01*
X151512065Y-109698003D01*
X151648779Y-109882000D01*
X152422000Y-109882000D01*
X152422000Y-108934166D01*
X152918000Y-108934166D01*
X152918000Y-109882000D01*
X153691221Y-109882000D01*
X153827935Y-109698003D01*
X153651011Y-109272540D01*
X153324737Y-108947170D01*
X153096216Y-108824304D01*
X152918000Y-108934166D01*
X152422000Y-108934166D01*
X152243784Y-108824304D01*
X152015263Y-108947170D01*
X151688989Y-109272540D01*
X151512065Y-109698003D01*
X148987935Y-109698003D01*
X148811011Y-109272540D01*
X148484737Y-108947170D01*
X148256216Y-108824304D01*
X148078002Y-108934165D01*
X148078002Y-108752000D01*
X150544537Y-108752000D01*
X150616010Y-108823598D01*
X150864746Y-108926882D01*
X151134073Y-108927117D01*
X151382989Y-108824267D01*
X151573598Y-108633990D01*
X151676882Y-108385254D01*
X151677117Y-108115927D01*
X151574267Y-107867011D01*
X151383990Y-107676402D01*
X151135254Y-107573118D01*
X150865927Y-107572883D01*
X150617011Y-107675733D01*
X150544618Y-107748000D01*
X148959389Y-107748000D01*
X149073598Y-107633990D01*
X149176882Y-107385254D01*
X149177117Y-107115927D01*
X149074267Y-106867011D01*
X148883990Y-106676402D01*
X148635254Y-106573118D01*
X148365927Y-106572883D01*
X148117011Y-106675733D01*
X147926402Y-106866010D01*
X147823118Y-107114746D01*
X147823029Y-107217036D01*
X147792064Y-107248000D01*
X136750000Y-107248000D01*
X136557892Y-107286212D01*
X136492660Y-107329800D01*
X136395032Y-107395032D01*
X136395030Y-107395035D01*
X136145032Y-107645032D01*
X136145030Y-107645035D01*
X134645032Y-109145032D01*
X134536212Y-109307893D01*
X134497999Y-109500000D01*
X134498000Y-109500005D01*
X134498000Y-109544537D01*
X134426402Y-109616010D01*
X134323118Y-109864746D01*
X134322883Y-110134073D01*
X132002000Y-110134073D01*
X132002000Y-109455463D01*
X132073598Y-109383990D01*
X132176882Y-109135254D01*
X132177117Y-108865927D01*
X132074267Y-108617011D01*
X131883990Y-108426402D01*
X131635254Y-108323118D01*
X131365927Y-108322883D01*
X131117011Y-108425733D01*
X130926402Y-108616010D01*
X130823118Y-108864746D01*
X130822883Y-109134073D01*
X130925733Y-109382989D01*
X130998000Y-109455382D01*
X130998000Y-110119934D01*
X130885254Y-110073118D01*
X130782964Y-110073029D01*
X130329562Y-109619626D01*
X130426882Y-109385254D01*
X130427117Y-109115927D01*
X130324267Y-108867011D01*
X130133990Y-108676402D01*
X129885254Y-108573118D01*
X129615927Y-108572883D01*
X129367011Y-108675733D01*
X129176402Y-108866010D01*
X129073118Y-109114746D01*
X129072883Y-109384073D01*
X114627000Y-109384073D01*
X114627000Y-106092941D01*
X116547784Y-106092941D01*
X116626201Y-106320509D01*
X117163714Y-106461753D01*
X117714364Y-106386549D01*
X117873799Y-106320509D01*
X117952216Y-106092941D01*
X117250000Y-105390725D01*
X116547784Y-106092941D01*
X114627000Y-106092941D01*
X114627000Y-104953714D01*
X115828247Y-104953714D01*
X115903451Y-105504364D01*
X115969491Y-105663799D01*
X116197059Y-105742216D01*
X116899275Y-105040000D01*
X117600725Y-105040000D01*
X118302941Y-105742216D01*
X118530509Y-105663799D01*
X118541566Y-105621720D01*
X135372675Y-105621720D01*
X135657829Y-106311846D01*
X136185376Y-106840316D01*
X136875004Y-107126674D01*
X137621720Y-107127325D01*
X138311846Y-106842171D01*
X138840316Y-106314624D01*
X139126674Y-105624996D01*
X139126676Y-105621720D01*
X142872675Y-105621720D01*
X143157829Y-106311846D01*
X143685376Y-106840316D01*
X144375004Y-107126674D01*
X145121720Y-107127325D01*
X145811846Y-106842171D01*
X146340316Y-106314624D01*
X146626674Y-105624996D01*
X146626676Y-105621720D01*
X153872675Y-105621720D01*
X154157829Y-106311846D01*
X154685376Y-106840316D01*
X155375004Y-107126674D01*
X156121720Y-107127325D01*
X156811846Y-106842171D01*
X157340316Y-106314624D01*
X157626674Y-105624996D01*
X157626676Y-105621720D01*
X161372675Y-105621720D01*
X161657829Y-106311846D01*
X162185376Y-106840316D01*
X162875004Y-107126674D01*
X163621720Y-107127325D01*
X164311846Y-106842171D01*
X164840316Y-106314624D01*
X165126674Y-105624996D01*
X165127325Y-104878280D01*
X164842171Y-104188154D01*
X164314624Y-103659684D01*
X163624996Y-103373326D01*
X162878280Y-103372675D01*
X162188154Y-103657829D01*
X161659684Y-104185376D01*
X161373326Y-104875004D01*
X161372675Y-105621720D01*
X157626676Y-105621720D01*
X157627325Y-104878280D01*
X157342171Y-104188154D01*
X156814624Y-103659684D01*
X156124996Y-103373326D01*
X155378280Y-103372675D01*
X154688154Y-103657829D01*
X154159684Y-104185376D01*
X153873326Y-104875004D01*
X153872675Y-105621720D01*
X146626676Y-105621720D01*
X146627325Y-104878280D01*
X146342171Y-104188154D01*
X145814624Y-103659684D01*
X145124996Y-103373326D01*
X144378280Y-103372675D01*
X143688154Y-103657829D01*
X143159684Y-104185376D01*
X142873326Y-104875004D01*
X142872675Y-105621720D01*
X139126676Y-105621720D01*
X139127325Y-104878280D01*
X138842171Y-104188154D01*
X138314624Y-103659684D01*
X137624996Y-103373326D01*
X136878280Y-103372675D01*
X136188154Y-103657829D01*
X135659684Y-104185376D01*
X135373326Y-104875004D01*
X135372675Y-105621720D01*
X118541566Y-105621720D01*
X118671753Y-105126286D01*
X118596549Y-104575636D01*
X118530509Y-104416201D01*
X118302941Y-104337784D01*
X117600725Y-105040000D01*
X116899275Y-105040000D01*
X116197059Y-104337784D01*
X115969491Y-104416201D01*
X115828247Y-104953714D01*
X114627000Y-104953714D01*
X114627000Y-102725567D01*
X116110803Y-102725567D01*
X116283840Y-103144349D01*
X116603966Y-103465034D01*
X117022445Y-103638802D01*
X117184745Y-103638943D01*
X116785636Y-103693451D01*
X116626201Y-103759491D01*
X116547784Y-103987059D01*
X117250000Y-104689275D01*
X117952216Y-103987059D01*
X117873799Y-103759491D01*
X117415814Y-103639145D01*
X117475567Y-103639197D01*
X117894349Y-103466160D01*
X118215034Y-103146034D01*
X118388802Y-102727555D01*
X118389197Y-102274433D01*
X118216160Y-101855651D01*
X117896034Y-101534966D01*
X117477555Y-101361198D01*
X117024433Y-101360803D01*
X116605651Y-101533840D01*
X116284966Y-101853966D01*
X116111198Y-102272445D01*
X116110803Y-102725567D01*
X114627000Y-102725567D01*
X114627000Y-100677000D01*
X167373000Y-100677000D01*
X167373000Y-114823000D01*
M02*
